<svg preserveAspectRatio="none" width="100%" height="100%" overflow="visible" style="display: block;" viewBox="0 0 19 19" fill="none" xmlns="http://www.w3.org/2000/svg">
<g id="Group 490">
<path id="Path 266" d="M9.234 0C6.728 0 6.413 0.012 5.428 0.055C4.66177 0.0709673 3.90376 0.216349 3.186 0.485C2.56962 0.716625 2.01127 1.0801 1.55 1.55C1.08037 2.01149 0.716943 2.56978 0.485 3.186C0.215992 3.90262 0.0705935 4.65971 0.055 5.425C0.012 6.411 0 6.725 0 9.235C0 11.745 0.012 12.056 0.055 13.04C0.0707595 13.8058 0.215801 14.5635 0.484 15.281C0.721529 15.8941 1.08434 16.4508 1.54924 16.9158C2.01415 17.3807 2.57093 17.7435 3.184 17.981C3.9014 18.2496 4.65913 18.3946 5.425 18.41C6.411 18.454 6.725 18.465 9.233 18.465C11.741 18.465 12.054 18.453 13.04 18.41C13.8065 18.3942 14.5648 18.2491 15.283 17.981C15.8961 17.7435 16.4528 17.3807 16.9178 16.9158C17.3827 16.4508 17.7455 15.8941 17.983 15.281C18.2506 14.5633 18.3956 13.8058 18.412 13.04C18.456 12.055 18.467 11.74 18.467 9.234C18.467 6.728 18.455 6.412 18.412 5.426C18.3957 4.66055 18.2506 3.90331 17.983 3.186C17.7508 2.56967 17.387 2.01138 16.917 1.55C16.4562 1.08004 15.8981 0.716552 15.282 0.485C14.564 0.216108 13.8056 0.0707206 13.039 0.055C12.053 0.012 11.741 0 9.231 0H9.234ZM8.406 1.664H9.235C11.7 1.664 11.992 1.672 12.965 1.717C13.5506 1.72375 14.1307 1.83097 14.68 2.034C15.0811 2.18219 15.444 2.4183 15.742 2.725C16.0487 3.02284 16.2845 3.38578 16.432 3.787C16.636 4.33538 16.7436 4.91493 16.75 5.5C16.795 6.473 16.804 6.765 16.804 9.229C16.804 11.693 16.795 11.986 16.75 12.959C16.7433 13.5443 16.6361 14.124 16.433 14.673C16.279 15.071 16.0435 15.4323 15.7417 15.7339C15.4398 16.0354 15.0781 16.2705 14.68 16.424C14.1313 16.6283 13.5514 16.7362 12.966 16.743C11.993 16.787 11.701 16.797 9.236 16.797C6.771 16.797 6.477 16.787 5.504 16.743C4.91859 16.7358 4.33879 16.6279 3.79 16.424C3.38888 16.2763 3.02599 16.0405 2.728 15.734C2.42049 15.4363 2.18368 15.0734 2.035 14.672C1.83176 14.1231 1.72453 13.5433 1.718 12.958C1.674 11.985 1.665 11.693 1.665 9.227C1.665 6.761 1.674 6.471 1.718 5.498C1.72523 4.91227 1.83314 4.33215 2.037 3.783C2.18519 3.38187 2.4213 3.01899 2.728 2.721C3.02584 2.41434 3.38878 2.17853 3.79 2.031C4.33765 1.82821 4.91605 1.72098 5.5 1.714C6.352 1.675 6.682 1.663 8.4 1.662L8.406 1.664ZM14.163 3.2C13.9439 3.2 13.7296 3.26498 13.5474 3.38673C13.3652 3.50848 13.2232 3.68153 13.1393 3.88399C13.0555 4.08645 13.0335 4.30923 13.0763 4.52416C13.119 4.73909 13.2246 4.93652 13.3795 5.09147C13.5345 5.24643 13.7319 5.35196 13.9468 5.39471C14.1618 5.43746 14.3846 5.41552 14.587 5.33166C14.7895 5.2478 14.9625 5.10578 15.0843 4.92357C15.206 4.74136 15.271 4.52714 15.271 4.308C15.271 4.1625 15.2423 4.01842 15.1867 3.88399C15.131 3.74956 15.0494 3.62741 14.9465 3.52453C14.8436 3.42164 14.7214 3.34002 14.587 3.28434C14.4526 3.22866 14.3085 3.2 14.163 3.2ZM9.235 4.492C8.29716 4.4922 7.38044 4.77048 6.60076 5.29166C5.82107 5.81283 5.21343 6.5535 4.85468 7.42001C4.49592 8.28651 4.40215 9.23994 4.58524 10.1597C4.76832 11.0795 5.22003 11.9244 5.88325 12.5875C6.54647 13.2505 7.39142 13.7021 8.31125 13.885C9.23108 14.0678 10.1845 13.9739 11.0509 13.6149C11.9173 13.256 12.6579 12.6482 13.1789 11.8684C13.6999 11.0886 13.978 10.1718 13.978 9.234C13.978 8.61119 13.8553 7.99448 13.6169 7.41908C13.3786 6.84369 13.0292 6.32089 12.5887 5.88055C12.1483 5.4402 11.6254 5.09093 11.05 4.85268C10.4746 4.61443 9.85781 4.49187 9.235 4.492ZM9.235 6.155C9.84377 6.155 10.4389 6.33552 10.945 6.67374C11.4512 7.01195 11.8457 7.49267 12.0787 8.0551C12.3117 8.61753 12.3726 9.23641 12.2539 9.83349C12.1351 10.4306 11.8419 10.979 11.4115 11.4095C10.981 11.8399 10.4326 12.1331 9.83549 12.2519C9.23841 12.3706 8.61953 12.3097 8.0571 12.0767C7.49467 11.8437 7.01395 11.4492 6.67574 10.943C6.33752 10.4369 6.157 9.84177 6.157 9.233C6.157 8.41666 6.48129 7.63376 7.05853 7.05653C7.63576 6.47929 8.41866 6.155 9.235 6.155Z" fill="var(--fill-0, white)"/>
</g>
</svg>
