<svg preserveAspectRatio="none" width="100%" height="100%" overflow="visible" style="display: block;" viewBox="0 0 19 19" fill="none" xmlns="http://www.w3.org/2000/svg">
<g id="Group 491">
<path id="Path 268" d="M0 1.3231C0.00448127 0.967873 0.149837 0.628966 0.404113 0.380878C0.658389 0.13279 1.00077 -0.00417315 1.356 9.69312e-05H17.111C17.4662 -0.00417315 17.8086 0.13279 18.0629 0.380878C18.3172 0.628966 18.4625 0.967873 18.467 1.3231V17.1441C18.4625 17.4993 18.3172 17.8382 18.0629 18.0863C17.8086 18.3344 17.4662 18.4714 17.111 18.4671H1.356C1.00077 18.4714 0.658389 18.3344 0.404113 18.0863C0.149837 17.8382 0.00448127 17.4993 0 17.1441L0 1.3231ZM5.705 15.4591V7.1201H2.934V15.4591H5.705ZM4.32 5.9811C4.51861 5.99807 4.71857 5.97377 4.90733 5.90973C5.09609 5.84568 5.26956 5.74328 5.41683 5.60895C5.5641 5.47462 5.68199 5.31128 5.76308 5.12919C5.84417 4.9471 5.88671 4.7502 5.88802 4.55088C5.88933 4.35155 5.8494 4.15411 5.77072 3.97097C5.69203 3.78782 5.57631 3.62294 5.43083 3.48668C5.28534 3.35042 5.11324 3.24574 4.92534 3.17921C4.73744 3.11268 4.53781 3.08574 4.339 3.1001C4.14173 3.08391 3.94324 3.10846 3.75585 3.17221C3.56847 3.23596 3.39619 3.33756 3.24972 3.47068C3.10325 3.60381 2.98571 3.76563 2.9044 3.94609C2.82309 4.12655 2.77975 4.3218 2.77707 4.51972C2.77439 4.71763 2.81243 4.91398 2.88883 5.09658C2.96522 5.27918 3.07833 5.44412 3.22115 5.58116C3.36397 5.7182 3.53343 5.82442 3.71902 5.89322C3.90461 5.96202 4.10236 5.99193 4.3 5.9811H4.32ZM9.985 15.4591V10.8001C9.97423 10.571 10.0054 10.3419 10.077 10.1241C10.1809 9.82929 10.3734 9.57381 10.6282 9.39265C10.8829 9.21148 11.1874 9.11349 11.5 9.1121C12.5 9.1121 12.9 9.8761 12.9 10.9981V15.4591H15.671V10.6761C15.671 8.1141 14.304 6.9231 12.481 6.9231C11.9789 6.90308 11.4809 7.02081 11.041 7.26353C10.601 7.50625 10.2358 7.86471 9.985 8.3001V8.3291H9.967L9.985 8.3001V7.1201H7.215C7.25 7.9031 7.215 15.4591 7.215 15.4591H9.985Z" fill="var(--fill-0, white)"/>
</g>
</svg>
