<svg preserveAspectRatio="none" width="100%" height="100%" overflow="visible" style="display: block;" viewBox="0 0 253 38" fill="none" xmlns="http://www.w3.org/2000/svg">
<path id="Union 16" d="M36.78 35.0659C34.8877 33.3375 33.5044 31.1244 32.78 28.666C31.7822 25.4043 31.3122 22.0041 31.3879 18.594C31.3879 12.6393 32.4153 8.07271 34.47 4.89404C35.3529 3.40286 36.6181 2.17444 38.1348 1.33618C39.6515 0.497919 41.3647 0.0801858 43.097 0.125977C44.8338 0.074088 46.5527 0.488997 48.0745 1.32764C49.5963 2.16628 50.8653 3.398 51.749 4.89404C53.7877 8.07271 54.807 12.6393 54.807 18.594C54.8813 22.0023 54.4194 25.4012 53.438 28.666C52.7252 31.1296 51.3401 33.3457 49.438 35.0659C47.6672 36.5594 45.4108 37.3527 43.095 37.2959C40.7874 37.3542 38.5393 36.5603 36.78 35.0659ZM38.203 4.07593C36.6238 5.55023 35.4845 7.43366 34.912 9.51685C34.0568 12.4636 33.6602 15.5246 33.736 18.592C33.6635 21.6783 34.06 24.7576 34.912 27.7249C35.4855 29.8416 36.623 31.7631 38.203 33.2839C39.5419 34.4975 41.289 35.1618 43.0959 35.144C44.9053 35.1637 46.6554 34.4993 47.996 33.2839C49.5741 31.7621 50.7105 29.8409 51.2841 27.7249C52.1369 24.7577 52.5337 21.6784 52.4611 18.592C52.537 15.5246 52.14 12.4635 51.2841 9.51685C50.7112 7.43447 49.5731 5.55136 47.996 4.07593C46.6395 2.89389 44.895 2.25302 43.0959 2.27588C41.2983 2.2542 39.5555 2.89497 38.2 4.07593H38.203ZM69.4561 34.9451C67.5637 33.2167 66.1804 31.0033 65.4561 28.5449C64.4579 25.2833 63.9876 21.883 64.063 18.4729C64.063 12.5176 65.0904 7.95095 67.145 4.77295C68.0281 3.28176 69.2936 2.05358 70.8104 1.21533C72.3273 0.377082 74.0405 -0.0408774 75.7729 0.00488281C77.5096 -0.0470373 79.2285 0.368135 80.7501 1.20679C82.2718 2.04544 83.5404 3.27691 84.424 4.77295C86.4633 7.95162 87.4827 12.5182 87.4821 18.4729C87.5564 21.8812 87.0944 25.2801 86.113 28.5449C85.4007 31.0087 84.0155 33.2252 82.113 34.9451C80.3426 36.4385 78.0865 37.2318 75.771 37.175C73.4638 37.2329 71.2152 36.4391 69.4561 34.9451ZM70.879 3.95508C69.3005 5.42974 68.1616 7.31307 67.589 9.396C66.7331 12.3426 66.3361 15.4035 66.412 18.4709C66.3393 21.5573 66.7362 24.6369 67.589 27.604C68.1626 29.7202 69.2997 31.641 70.879 33.1619C72.2183 34.3754 73.9657 35.0396 75.7729 35.022C77.5823 35.0417 79.3324 34.3772 80.673 33.1619C82.2518 31.6409 83.3882 29.7201 83.9611 27.604C84.8139 24.6369 85.2106 21.5573 85.1379 18.4709C85.2139 15.4035 84.817 12.3426 83.9611 9.396C83.3892 7.31321 82.251 5.42985 80.673 3.95508C79.3165 2.77295 77.5721 2.13208 75.7729 2.15503C73.9763 2.13437 72.2339 2.77506 70.879 3.95508ZM169.485 11.9839V34.79H164.685V0L187.875 24.853V2.21606H192.675V36.7729L169.485 11.9839ZM0 36.502V34.3169H10.2V4.64087H2.53699V2.94092C3.75365 2.78025 4.85903 2.58436 5.85303 2.35303C6.84703 2.12169 7.75806 1.86656 8.58606 1.58789C9.34155 1.34076 10.077 1.03632 10.786 0.677002H12.563V34.3188H22.126V36.5039L0 36.502ZM237.512 34.79V20.718L227.132 2.21802H232.652L239.922 15.2349L247.213 2.21802H252.733L242.311 20.718V34.79H237.512ZM201.182 34.79V2.21606H207.855C210.417 2.1282 212.977 2.45574 215.434 3.18604C217.46 3.83993 219.311 4.94349 220.85 6.41406C222.486 7.96105 223.771 9.84012 224.621 11.9253C225.47 14.0105 225.863 16.2533 225.773 18.5029C225.856 20.7802 225.441 23.048 224.555 25.1475C223.669 27.2469 222.334 29.1271 220.644 30.656C219.094 32.1039 217.253 33.2042 215.244 33.8831C212.815 34.5767 210.292 34.8828 207.768 34.79H201.182ZM205.982 30.1699H208.145C209.962 30.2152 211.776 29.9791 213.521 29.47C214.962 28.9699 216.281 28.1719 217.393 27.1279C218.565 26.0258 219.488 24.6854 220.099 23.197C220.71 21.7086 220.995 20.1068 220.935 18.499C220.997 16.8855 220.717 15.2771 220.114 13.7793C219.511 12.2815 218.598 10.928 217.435 9.80786C215.334 7.82453 212.237 6.8327 208.146 6.83203H205.983L205.982 30.1699ZM154.576 34.79L151.24 26.8789H137.626L134.084 34.79H128.915L144.65 0.169922L159.829 34.79H154.576ZM139.623 22.259H149.283L144.566 11.1829L139.623 22.259ZM119.254 34.79V19.5789H105.537V34.79H100.737V2.21606H105.537V14.958H119.254V2.21606H124.054V34.79H119.254Z" fill="var(--fill-0, white)"/>
</svg>
