<svg width="27" height="25" viewBox="0 0 27 25" fill="none" xmlns="http://www.w3.org/2000/svg">
<path d="M26.5605 2.563C27.1465 1.97704 27.1465 1.02543 26.5605 0.439472C25.9746 -0.146491 25.0229 -0.146491 24.437 0.439472L15.4366 9.43986L13.81 7.81323C13.6131 7.61634 13.3412 7.50384 13.0599 7.50384C12.474 7.50384 12.0005 7.9773 12.0005 8.56326V9.92738L17.0773 15.0042H18.4414C19.0274 15.0042 19.5008 14.5307 19.5008 13.9447C19.5008 13.6635 19.3883 13.3916 19.1914 13.1947L17.5648 11.5681L26.5652 2.56769L26.5605 2.563ZM15.9898 16.5699L10.4348 11.0149C8.43317 10.8415 6.4409 11.5634 5.00647 12.9978L4.63145 13.3728C3.58609 14.4182 3.00013 15.8339 3.00013 17.3105C3.00013 17.6293 3.33296 17.8355 3.61891 17.6949L6.01432 16.4995C6.24871 16.3823 6.45965 16.6917 6.26746 16.8699L0.342202 22.1951C0.126568 22.392 0 22.6732 0 22.9686C0 23.5405 0.464082 24.0045 1.03598 24.0045H9.15977C10.9786 24.0045 12.7177 23.2826 14.0069 21.9982C15.4413 20.5638 16.1585 18.5715 15.9898 16.5699Z" fill="white"/>
</svg>
