<svg width="25" height="24" viewBox="0 0 25 24" fill="none" xmlns="http://www.w3.org/2000/svg">
<path d="M3.68562 0.234933C3.24032 -0.111934 2.60752 -0.0697474 2.2044 0.328681L0.329446 2.20364C-0.0689826 2.60207 -0.111169 3.23486 0.231011 3.68485L3.98092 8.55974C4.19186 8.8363 4.52466 9.00036 4.87153 9.00036H7.40741L12.5167 14.1096C11.8276 15.469 12.0479 17.1752 13.187 18.3095L18.4368 23.5594C19.0228 24.1453 19.9743 24.1453 20.5602 23.5594L23.5602 20.5595C24.1461 19.9735 24.1461 19.022 23.5602 18.4361L18.3103 13.1862C17.1759 12.0519 15.4697 11.8269 14.1104 12.5159L9.00112 7.40664V4.87545C9.00112 4.5239 8.83706 4.19578 8.56051 3.98485L3.68562 0.234933ZM0.934119 18.5673C0.338821 19.1626 0.00132831 19.9735 0.00132831 20.8173C0.00132831 22.575 1.4263 24 3.18407 24C4.0278 24 4.83872 23.6625 5.43402 23.0672L10.9558 17.5455C10.5901 16.5658 10.5339 15.5018 10.787 14.494L7.8949 11.6019L0.934119 18.5673ZM24.0008 6.75041C24.0008 6.25823 23.9492 5.78012 23.8508 5.32075C23.7383 4.79577 23.0961 4.65983 22.7164 5.03951L19.7212 8.03475C19.5806 8.17538 19.3884 8.25506 19.1915 8.25506H16.501C16.0885 8.25506 15.751 7.91757 15.751 7.50508V4.80983C15.751 4.61296 15.8307 4.42078 15.9713 4.28015L18.9665 1.28491C19.3462 0.90523 19.2103 0.263057 18.6853 0.15056C18.2212 0.0521248 17.7431 0.000563478 17.2509 0.000563478C13.5245 0.000563478 10.5011 3.02393 10.5011 6.75041V6.78791L14.4994 10.7863C16.1869 10.3597 18.0525 10.8097 19.3743 12.1315L20.1102 12.8675C22.4071 11.7894 24.0008 9.45503 24.0008 6.75041ZM2.62627 20.2501C2.62627 19.9517 2.74479 19.6656 2.95577 19.4546C3.16674 19.2437 3.45288 19.1251 3.75124 19.1251C4.0496 19.1251 4.33575 19.2437 4.54672 19.4546C4.75769 19.6656 4.87622 19.9517 4.87622 20.2501C4.87622 20.5485 4.75769 20.8346 4.54672 21.0456C4.33575 21.2565 4.0496 21.3751 3.75124 21.3751C3.45288 21.3751 3.16674 21.2565 2.95577 21.0456C2.74479 20.8346 2.62627 20.5485 2.62627 20.2501Z" fill="white"/>
</svg>
