<svg viewBox="0 0 771 372" fill="none" xmlns="http://www.w3.org/2000/svg">
<g id="Group 178">
<path id="Union 7" d="M348.293 248.87V361.676H323.981V189.6L441.469 312.524V200.555H465.781V371.482L348.293 248.87ZM692.935 361.676V292.076L640.347 200.557H668.31L705.143 264.942L742.079 200.557H770.043L717.243 292.076V361.676H692.935ZM508.874 361.676V200.555H542.682C558.89 200.555 571.69 202.155 581.082 205.355C591.305 208.565 600.681 214.02 608.524 221.321C625.15 236.489 633.462 256.42 633.461 281.115C633.461 305.882 624.801 325.918 607.481 341.221C598.784 348.874 589.67 354.196 580.14 357.187C571.236 360.18 558.611 361.677 542.265 361.676H508.874ZM533.186 338.822H544.142C555.063 338.822 564.141 337.674 571.374 335.378C578.646 332.92 585.327 328.976 590.991 323.795C602.956 312.872 608.938 298.646 608.938 281.115C608.938 263.444 603.025 249.114 591.199 238.123C580.556 228.314 564.87 223.41 544.141 223.409H533.187L533.186 338.822ZM272.75 361.676L255.85 322.543H186.88L168.933 361.676H142.74L222.455 190.434L299.355 361.676H272.75ZM197 299.69H245.936L222.036 244.905L197 299.69ZM93.8 361.676V286.437H24.31V361.676H0V200.555H24.31V263.583H93.8V200.555H118.112V361.676H93.8ZM186.335 173.429C177.531 166.076 170.776 155.521 166.07 141.764C161.364 128.007 159.012 111.402 159.013 91.95C159.013 62.496 164.218 39.907 174.628 24.183C185.038 8.459 199.608 0.598 218.337 0.6C237.227 0.6 251.837 8.462 262.168 24.186C272.499 39.91 277.663 62.499 277.662 91.953C277.662 111.407 275.35 128.012 270.725 141.767C266.1 155.522 259.349 166.077 250.472 173.432C241.594 180.787 230.883 184.465 218.338 184.464C205.809 184.462 195.142 180.784 186.337 173.429H186.335ZM193.541 20.15C186.402 26.0913 180.845 35.0627 176.87 47.064C172.895 59.0653 170.907 74.0273 170.908 91.95C170.908 109.871 172.895 124.929 176.87 137.126C180.845 149.323 186.402 158.487 193.541 164.619C200.44 170.556 209.239 173.821 218.341 173.821C227.443 173.821 236.242 170.556 243.141 164.619C250.274 158.482 255.826 149.318 259.797 137.126C263.768 124.934 265.756 109.875 265.761 91.95C265.761 74.0273 263.773 59.0653 259.797 47.064C255.821 35.0627 250.27 26.091 243.144 20.149C236.162 14.3905 227.394 11.2411 218.344 11.2411C209.294 11.2411 200.526 14.3905 193.544 20.149L193.541 20.15ZM351.886 172.832C343.078 165.477 336.322 154.923 331.619 141.17C326.916 127.417 324.564 110.81 324.563 91.351C324.563 61.8997 329.768 39.3117 340.178 23.587C350.588 7.86233 365.157 0 383.885 0C402.776 0 417.386 7.862 427.716 23.586C438.046 39.31 443.211 61.898 443.21 91.35C443.21 110.805 440.897 127.412 436.272 141.169C431.647 154.926 424.896 165.48 416.019 172.831C407.142 180.184 396.431 183.861 383.885 183.862C371.358 183.863 360.691 180.186 351.886 172.832ZM359.092 19.554C351.954 25.4933 346.397 34.4633 342.421 46.464C338.445 58.4647 336.458 73.427 336.459 91.351C336.459 109.273 338.446 124.332 342.421 136.527C346.396 148.722 351.953 157.887 359.092 164.02C365.99 169.957 374.79 173.223 383.892 173.223C392.994 173.223 401.794 169.957 408.692 164.02C415.821 157.887 421.373 148.722 425.348 136.527C429.323 124.332 431.311 109.273 431.312 91.351C431.312 73.429 429.324 58.4667 425.348 46.464C421.372 34.4613 415.82 25.4913 408.692 19.554C401.711 13.7942 392.943 10.644 383.892 10.644C374.841 10.644 366.073 13.7942 359.092 19.554ZM0 180.536V169.728H51.7V22.947H12.873V14.524C19.0357 13.728 24.6357 12.7577 29.673 11.613C34.7103 10.4683 39.3253 9.20733 43.518 7.83C47.3333 6.61012 51.0517 5.1059 54.642 3.33H63.642V169.73H112.1V180.539L0 180.536Z" fill="#30352D"/>
</g>
</svg>