<svg width="14" height="18" viewBox="0 0 14 18" fill="none" xmlns="http://www.w3.org/2000/svg">
<path d="M7.6029 17.5956C9.4111 15.3327 13.5351 9.84817 13.5351 6.76753C13.5351 3.03129 10.5038 0 6.76753 0C3.03129 0 0 3.03129 0 6.76753C0 9.84817 4.12396 15.3327 5.93217 17.5956C6.36571 18.1349 7.16935 18.1349 7.6029 17.5956ZM6.76753 4.51169C7.36582 4.51169 7.9396 4.74936 8.36265 5.17241C8.78571 5.59546 9.02338 6.16925 9.02338 6.76753C9.02338 7.36582 8.78571 7.9396 8.36265 8.36265C7.9396 8.78571 7.36582 9.02338 6.76753 9.02338C6.16925 9.02338 5.59546 8.78571 5.17241 8.36265C4.74936 7.9396 4.51169 7.36582 4.51169 6.76753C4.51169 6.16925 4.74936 5.59546 5.17241 5.17241C5.59546 4.74936 6.16925 4.51169 6.76753 4.51169Z" fill="#333A31"/>
</svg>
