<svg width="18" height="19" viewBox="0 0 18 19" fill="none" xmlns="http://www.w3.org/2000/svg">
<path d="M14.6257 7.31286C14.6257 8.92661 14.1019 10.4173 13.2194 11.6267L17.6704 16.0813C18.1099 16.5207 18.1099 17.2344 17.6704 17.6739C17.2309 18.1134 16.5172 18.1134 16.0777 17.6739L11.6267 13.2194C10.4173 14.1054 8.92661 14.6257 7.31286 14.6257C3.27321 14.6257 0 11.3525 0 7.31286C0 3.27321 3.27321 0 7.31286 0C11.3525 0 14.6257 3.27321 14.6257 7.31286ZM7.31286 12.3756C7.97771 12.3756 8.63605 12.2447 9.25029 11.9902C9.86453 11.7358 10.4226 11.3629 10.8928 10.8928C11.3629 10.4226 11.7358 9.86453 11.9902 9.25029C12.2447 8.63605 12.3756 7.97771 12.3756 7.31286C12.3756 6.64801 12.2447 5.98967 11.9902 5.37543C11.7358 4.76119 11.3629 4.20308 10.8928 3.73296C10.4226 3.26284 9.86453 2.88992 9.25029 2.63549C8.63605 2.38106 7.97771 2.25011 7.31286 2.25011C6.64801 2.25011 5.98967 2.38106 5.37543 2.63549C4.76119 2.88992 4.20308 3.26284 3.73296 3.73296C3.26284 4.20308 2.88992 4.76119 2.63549 5.37543C2.38106 5.98967 2.25011 6.64801 2.25011 7.31286C2.25011 7.97771 2.38106 8.63605 2.63549 9.25029C2.88992 9.86453 3.26284 10.4226 3.73296 10.8928C4.20308 11.3629 4.76119 11.7358 5.37543 11.9902C5.98967 12.2447 6.64801 12.3756 7.31286 12.3756Z" fill="#333A31"/>
</svg>
