<svg fill="currentColor" xmlns="http://www.w3.org/2000/svg" viewBox="0 0 160 160">
  <rect fill="none" stroke="currentColor" stroke-miterlimit="10" stroke-width="3px" x="72.69" y="100.51" width="12.72" height="23.81" rx="1.89" ry="1.89"/>
  <rect fill="none" stroke="currentColor" stroke-miterlimit="10" stroke-width="3px" x="44.8" y="82.85" width="12.72" height="23.81" rx="2.91" ry="2.91" transform="translate(112.58 6.3) rotate(63.14)"/>
  <rect fill="none" stroke="currentColor" stroke-miterlimit="10" stroke-width="3px" x="75.57" y="90.44" width="6.39" height="10" rx="1.66" ry="1.66"/>
  <rect fill="none" stroke="currentColor" stroke-miterlimit="10" stroke-width="3px" x="63.19" y="82.21" width="6.39" height="10" rx="1.82" ry="1.82" transform="translate(116.26 -10.38) rotate(64.35)"/>
  <ellipse fill="none" stroke="currentColor" stroke-miterlimit="10" stroke-width="3px" cx="78.87" cy="81.32" rx="8.76" ry="9.07"/>
  <path fill="none" stroke="currentColor" stroke-miterlimit="10" stroke-width="3px" d="M88.35,83.06c2.58.15,11.63-.25,17.86-5.43,7.33-6.1,9.46-16.78,7.65-17.84-1.13-.66-3.82,6.48-11.95,11.47-4.86,2.99-11.33,4.76-14.95,5.16"/>
  <path fill="none" stroke="currentColor" stroke-miterlimit="10" stroke-width="3px" d="M84.55,72.62c1.66-1.93,3.58-8.02,2.86-13.79-1.3-10.39-13.79-21.92-13.82-17.99-.04,4.45-.2,8.28-.04,32.49"/>
  <path fill="none" stroke="currentColor" stroke-miterlimit="10" stroke-width="3px" d="M72.46,54.75c-2.86,1.23-6.9,3.25-11.19,6.5-6.74,5.12-11.48,11.31-10.89,11.95.53.59,5.08-3.92,14.07-8.02,3.43-1.56,6.4-2.56,8.47-3.18"/>
  <path fill="none" stroke="currentColor" stroke-miterlimit="10" stroke-width="3px" d="M107.9,93.05c-1.35-.19-5.47-.6-9.08,1.97-4.28,3.05-7.61,10.06-5.59,12.32,1.86,2.07,8.48.11,11.79-2.79,4.16-3.64,3.06-10.2,3.01-11.04"/>
  <path fill="none" stroke="currentColor" stroke-miterlimit="10" stroke-width="3px" d="M59.8,56.32l.61-.63c.06-1.58.19-5.74-2.72-9.08-3.06-3.5-9.29-7.8-11.45-6.03-2.12,1.75-.16,8.96,3.13,12.68,2.96,3.35,9.24,3.29,10.36,3.24"/>
  <path fill="none" stroke="currentColor" stroke-miterlimit="10" stroke-width="3px" d="M119.55,86.27c0,.26,0-.12,0-.18l.61-54.76c0-.06-.01-.44,0-.18"/>
  <path fill="none" stroke="currentColor" stroke-miterlimit="10" stroke-width="3px" d="M118.96,96.58l-.04,31.08c0,.08,0,.51,0,.25"/>
  <path fill="none" stroke="currentColor" stroke-miterlimit="10" stroke-width="3px" d="M91.41,69.47c-.17-.19.01.01.02.02l27.38,27.18s.29.31.1.11"/>
  <path fill="none" stroke="currentColor" stroke-miterlimit="10" stroke-width="3px" d="M119.45,80.49l-26-17.17s-.2-.13-.02,0"/>
  <line fill="none" stroke="currentColor" stroke-miterlimit="10" stroke-width="3px" x1="111.38" y1="90.91" x2="107.34" y2="94.3"/>
  <line fill="none" stroke="currentColor" stroke-miterlimit="10" stroke-width="3px" x1="61.95" y1="58.89" x2="58.67" y2="54.88"/>
  <polygon fill="none" points="110.56 76.42 105.65 81.48 96.1 72.01 99.59 69.17 110.56 76.42"/>
</svg>
