<svg fill="currentColor" xmlns="http://www.w3.org/2000/svg" viewBox="0 0 160 160">
  <g>
    <g>
      <rect fill="none" x="41.33" y="41.12" width="7.36" height="77.54" rx=".92" ry=".92"/>
      <path d="M47.19,42.62v74.54h-4.36V42.62h4.36M47.77,39.62h-5.52c-1.34,0-2.42,1.08-2.42,2.42v75.7c0,1.34,1.08,2.42,2.42,2.42h5.52c1.34,0,2.42-1.08,2.42-2.42V42.04c0-1.34-1.08-2.42-2.42-2.42h0Z"/>
    </g>
    <g>
      <rect fill="none" x="111.31" y="41.12" width="7.36" height="77.54" rx=".92" ry=".92"/>
      <path d="M117.17,42.62v74.54h-4.36V42.62h4.36M117.75,39.62h-5.52c-1.34,0-2.42,1.08-2.42,2.42v75.7c0,1.34,1.08,2.42,2.42,2.42h5.52c1.34,0,2.42-1.08,2.42-2.42V42.04c0-1.34-1.08-2.42-2.42-2.42h0Z"/>
    </g>
  </g>
  <g>
    <g>
      <polygon fill="none" points="33.65 86.14 33.61 77.62 126.35 77.57 126.39 86.1 126.35 86.14 33.65 86.14"/>
      <path d="M124.89,79.07v5.57H35.11v-5.57h89.79M126.35,76.07H33.65c-.85,0-1.55.69-1.55,1.55v8.48c0,.85.69,1.55,1.55,1.55h92.7c.85,0,1.55-.69,1.55-1.55v-8.48c0-.85-.69-1.55-1.55-1.55h0Z"/>
    </g>
    <g>
      <polygon fill="none" points="33.65 118.88 33.61 110.35 126.35 110.3 126.39 118.83 126.35 118.88 33.65 118.88"/>
      <path d="M124.89,111.8v5.57H35.11v-5.57h89.79M126.35,108.8H33.65c-.85,0-1.55.69-1.55,1.55v8.48c0,.85.69,1.55,1.55,1.55h92.7c.85,0,1.55-.69,1.55-1.55v-8.48c0-.85-.69-1.55-1.55-1.55h0Z"/>
    </g>
  </g>
</svg>
