<svg fill="currentColor" xmlns="http://www.w3.org/2000/svg" viewBox="0 0 160 160">
  <path fill="none" stroke="currentColor" stroke-miterlimit="10" stroke-width="3px" d="M49.54,60.37l67.9-16.65c.36-.09.73.13.82.5l5.27,21.49c.13.54-.2,1.09-.74,1.23l-65.42,16.67"/>
  <path fill="none" stroke="currentColor" stroke-miterlimit="10" stroke-width="3px" d="M57.51,83.57c-.94,2.16-4.45,21.62-8.4,28.46-.72,1.24-1.92,2.14-3.3,2.54l-5.79,1.7c-.49.13-.98-.23-.99-.74l-1.51-50.15c-.03-1.11.71-2.1,1.79-2.38l10.23-2.63"/>
  <path fill="none" stroke="currentColor" stroke-miterlimit="10" stroke-width="3px" d="M59.66,86c-1.04-1.13-2.56-2.89-2.15-2.42l19.14,21.71c.25.27.17.7-.15.86l-2.96,1.49c-1.61.81-3.52.77-5.09-.11l-13.03-7.41s-2.01-1.01-1.37-.69"/>
  <path fill="none" stroke="currentColor" stroke-miterlimit="10" stroke-width="3px" d="M119.8,48.23l16.12,2.86c.33.06.44.48.18.69l-12.76,10.33"/>
  <path fill="none" stroke="currentColor" stroke-miterlimit="10" stroke-width="3px" d="M52.63,55.02h44.41v9.28c0,1.27-1.03,2.31-2.31,2.31h-40.46c-.91,0-1.64-.74-1.64-1.64v-9.94h0Z" transform="translate(-12.33 19.57) rotate(-13.78)"/>
  <path fill="none" stroke="currentColor" stroke-miterlimit="10" stroke-width="3px" d="M32.1,55.88c1.46-.35-10.1,1.74-8.12,11.42,1.25,6.08,5.94,9.65,12.77,9.07"/>
</svg>
