<svg fill="currentColor" xmlns="http://www.w3.org/2000/svg" viewBox="0 0 160 160">
  <g>
    <path fill="none" d="M30.52,41.82h98.96c3.12,0,5.66,2.54,5.66,5.66v55.63c0,3.12-2.54,5.66-5.66,5.66H30.52c-3.12,0-5.66-2.54-5.66-5.66v-55.63c0-3.12,2.54-5.66,5.66-5.66Z"/>
    <path d="M129.48,43.32c2.29,0,4.16,1.87,4.16,4.16v55.63c0,2.29-1.87,4.16-4.16,4.16H30.52c-2.29,0-4.16-1.87-4.16-4.16v-55.63c0-2.29,1.87-4.16,4.16-4.16h98.96M129.48,40.32H30.52c-3.95,0-7.16,3.21-7.16,7.16v55.63c0,3.95,3.21,7.16,7.16,7.16h98.96c3.95,0,7.16-3.21,7.16-7.16v-55.63c0-3.95-3.21-7.16-7.16-7.16h0Z"/>
  </g>
  <g>
    <rect x="74.62" y="110.51" width="10.77" height="5.75"/>
    <path d="M83.88,112.01v2.75h-7.77v-2.75h7.77M86.88,109.01h-13.77v8.75h13.77v-8.75h0Z"/>
  </g>
  <g>
    <rect x="48.59" y="115.42" width="62.82" height="2.76" rx=".52" ry=".52"/>
    <path d="M110.88,113.92h-61.77c-1.12,0-2.02.91-2.02,2.02v1.71c0,1.12.91,2.02,2.02,2.02h61.77c1.12,0,2.02-.91,2.02-2.02v-1.71c0-1.12-.91-2.02-2.02-2.02h0Z"/>
  </g>
</svg>
