<svg fill="currentColor" xmlns="http://www.w3.org/2000/svg" viewBox="0 0 160 160">
  <g>
    <rect stroke="currentColor" stroke-miterlimit="10" stroke-width="3px" fill="none" x="51.47" y="55.99" width="53.19" height="42.08" rx="4.43" ry="4.43" transform="translate(-.23 .23) rotate(-.17)"/>
    <path stroke="currentColor" stroke-miterlimit="10" stroke-width="3px" fill="none" d="M135.68,93.78c0,.47-.16,1.35-.83,2.02-.64.65-1.5.8-2.01.84l-23.2.07c-1.57,0-2.85-1.27-2.86-2.84l-.08-27.8c0-1.57,1.27-2.85,2.84-2.86l13.96-.04c.28,0,.54.15.7.39.94,1.48,1.75,2.66,2.32,3.46,3.43,4.85,4.85,7.24,8.15,11.43.3.57.47.9.49,1.29.27,4.22.45,7.14.52,14.06Z"/>
    <ellipse fill="none" stroke="currentColor" stroke-miterlimit="10" stroke-width="3px" cx="70.43" cy="96.61" rx="7.3" ry="7.23" transform="translate(-.29 .21) rotate(-.17)"/>
    <ellipse fill="none" stroke="currentColor" stroke-miterlimit="10" stroke-width="3px" cx="119.83" cy="96.84" rx="7.3" ry="7.23" transform="translate(-.29 .36) rotate(-.17)"/>
    <path stroke="currentColor" stroke-miterlimit="10" stroke-width="3px" fill="none" d="M113.75,78.38l-.03-9.81c0-.08,0-.46,0-.24"/>
    <path stroke="currentColor" stroke-miterlimit="10" stroke-width="3px" fill="none" d="M126.64,78.27c.11,0-.06,0-.09,0l-12.68.03s-.19,0-.09,0"/>
  </g>
  <g>
    <path stroke="currentColor" stroke-miterlimit="10" stroke-width="3px" fill="none" d="M44.96,75.93c.19,0,.05,0,0,0l-13.66.05s-.21,0-.11,0"/>
    <path stroke="currentColor" stroke-miterlimit="10" stroke-width="3px" fill="none" d="M44.99,83.7c.19,0,.07,0,0,0l-20.46.06c-.06,0-.31-.02-.17,0"/>
    <path stroke="currentColor" stroke-miterlimit="10" stroke-width="3px" fill="none" d="M45.01,91.44c.11-.01.05,0,0,.01l-11.54.03s-.32-.02-.14,0"/>
  </g>
</svg>
