<svg fill="currentColor" xmlns="http://www.w3.org/2000/svg" viewBox="0 0 160 160">
  <g>
    <path fill="none" stroke="currentColor" stroke-miterlimit="10" stroke-width="3px" d="M136.29,50.19c-.06-14.91-.07,74.53,0,59.63"/>
    <path fill="none" stroke="currentColor" stroke-miterlimit="10" stroke-width="3px" d="M114.31,74.7c.04-3.09-.13,13.53-.09,12.37"/>
    <path fill="none" stroke="currentColor" stroke-miterlimit="10" stroke-width="3px" d="M134.99,85.89s-28.05,0-22.44,0"/>
    <path fill="none" stroke="currentColor" stroke-miterlimit="10" stroke-width="3px" d="M92.56,72.81s32.33,9.68,25.88,7.71"/>
  </g>
  <g>
    <path fill="none" d="M30.34,95.15l-.19-.08c-3.85-1.52-4.96-2.07-4.94-4.64l.62-19.99c.26-3.1,1.16-3.4,4.11-4.41.33-.11.67-.23,1.03-.36l57.37-19.08c2.45.12,4.41,2.15,4.41,4.63l-.62,57.53c0,2.5-1.96,4.53-4.42,4.65l-57.36-18.25Z"/>
    <path d="M88.51,48.12c1.54.2,2.73,1.51,2.73,3.08l-.63,57.58c0,1.6-1.2,2.92-2.74,3.11l-57.03-18.14-.15-.06c-3.97-1.57-4-1.8-3.99-3.19l.62-19.91c.17-2,.22-2.13,3.1-3.12.32-.11.66-.23,1.01-.35l57.08-18.99M88.1,45.09l-57.64,19.18c-3.65,1.3-5.75,1.54-6.13,6.13l-.63,20.03c-.02,3.78,2.3,4.62,6.13,6.13l57.64,18.34c3.39,0,6.13-2.75,6.13-6.13l.63-57.55c0-3.39-2.75-6.13-6.13-6.13h0Z"/>
  </g>
</svg>
