<svg fill="currentColor" xmlns="http://www.w3.org/2000/svg" viewBox="0 0 160 160">
  <rect stroke="currentColor" stroke-miterlimit="10" stroke-width="3px" fill="none" x="49.92" y="34.95" width="60.4" height="11.03" rx="2.26" ry="2.26"/>
  <rect stroke="currentColor" stroke-miterlimit="10" stroke-width="3px" fill="none" x="63.21" y="46.13" width="33.23" height="6.24" rx="1.96" ry="1.96"/>
  <path stroke="currentColor" stroke-miterlimit="10" stroke-width="3px" fill="none" d="M67.06,52.78h25.89v65.52c0,3.73-3.03,6.76-6.76,6.76h-12.37c-3.73,0-6.76-3.03-6.76-6.76V52.78h0Z"/>
  <rect stroke="currentColor" stroke-miterlimit="10" stroke-width="3px" fill="none" x="34.48" y="100.62" width="32.57" height="10.76" rx="2.1" ry="2.1"/>
  <rect stroke="currentColor" stroke-miterlimit="10" stroke-width="3px" fill="none" x="93.01" y="60.78" width="32.51" height="10.47" rx="1.9" ry="1.9"/>
  <rect fill="none" stroke="currentColor" stroke-miterlimit="10" stroke-width="3px" x="41.9" y="94.66" width="7.56" height="22.54" rx="1.56" ry="1.56"/>
  <rect fill="none" stroke="currentColor" stroke-miterlimit="10" stroke-width="3px" x="110.83" y="54.67" width="6.98" height="22.1" rx="1.27" ry="1.27"/>
  <line stroke="currentColor" stroke-miterlimit="10" stroke-width="3px" fill="none" x1="55.28" y1="101.35" x2="55.28" y2="111.09"/>
  <line stroke="currentColor" stroke-miterlimit="10" stroke-width="3px" fill="none" x1="60.95" y1="101.06" x2="60.95" y2="110.22"/>
  <line stroke="currentColor" stroke-miterlimit="10" stroke-width="3px" fill="none" x1="98.9" y1="61.36" x2="99.05" y2="70.23"/>
  <line stroke="currentColor" stroke-miterlimit="10" stroke-width="3px" fill="none" x1="104.72" y1="61.5" x2="104.87" y2="70.52"/>
  <path stroke="currentColor" stroke-miterlimit="10" stroke-width="2px" fill="none" d="M80.72,81.82c-.76,1.52-1.34,2.83-1.94,3.92-.61,1.1-2.42,4.12-2.7,5.83-.31,1.85.45,4.27,2.74,4.91,1.65.46,3.62-.08,4.72-1.41.95-1.15,1.13-2.5,1.13-3.45,0-1.24-.47-2.27-2.2-6.07-.64-1.41-1.23-2.66-1.75-3.73Z"/>
</svg>
